<mxfile host="app.diagrams.net" modified="2023-06-07T01:33:08.956Z" agent="Mozilla/5.0 (Macintosh; Intel Mac OS X 10_15_7) AppleWebKit/537.36 (KHTML, like Gecko) Chrome/113.0.0.0 Safari/537.36" etag="ar3Eb5KGzhozhSoWJG11" version="21.3.7" type="device">
  <diagram name="Page-1" id="MFZcJYkU7GIZg_1Gkq1R">
    <mxGraphModel dx="725" dy="469" grid="1" gridSize="10" guides="1" tooltips="1" connect="1" arrows="1" fold="1" page="1" pageScale="1" pageWidth="1100" pageHeight="850" math="0" shadow="0">
      <root>
        <mxCell id="0" />
        <mxCell id="1" parent="0" />
        <mxCell id="JwCXE5OwB9fEEJccJ2Uv-1" value="APP" style="rounded=0;whiteSpace=wrap;html=1;" vertex="1" parent="1">
          <mxGeometry x="10" y="50" width="130" height="70" as="geometry" />
        </mxCell>
        <mxCell id="JwCXE5OwB9fEEJccJ2Uv-2" value="Header" style="rounded=1;whiteSpace=wrap;html=1;" vertex="1" parent="1">
          <mxGeometry x="490" y="55" width="120" height="60" as="geometry" />
        </mxCell>
        <mxCell id="JwCXE5OwB9fEEJccJ2Uv-3" value="Login Form" style="rounded=1;whiteSpace=wrap;html=1;" vertex="1" parent="1">
          <mxGeometry x="40" y="260" width="120" height="60" as="geometry" />
        </mxCell>
        <mxCell id="JwCXE5OwB9fEEJccJ2Uv-4" value="Card Area" style="rounded=1;whiteSpace=wrap;html=1;" vertex="1" parent="1">
          <mxGeometry x="320" y="260" width="120" height="60" as="geometry" />
        </mxCell>
        <mxCell id="JwCXE5OwB9fEEJccJ2Uv-5" value="" style="endArrow=none;html=1;rounded=0;exitX=0.5;exitY=0;exitDx=0;exitDy=0;entryX=0.454;entryY=0.986;entryDx=0;entryDy=0;entryPerimeter=0;" edge="1" parent="1" source="JwCXE5OwB9fEEJccJ2Uv-3" target="JwCXE5OwB9fEEJccJ2Uv-1">
          <mxGeometry width="50" height="50" relative="1" as="geometry">
            <mxPoint x="20" y="170" as="sourcePoint" />
            <mxPoint x="110" y="140" as="targetPoint" />
            <Array as="points" />
          </mxGeometry>
        </mxCell>
        <mxCell id="JwCXE5OwB9fEEJccJ2Uv-6" value="" style="endArrow=none;html=1;rounded=0;entryX=0.5;entryY=0;entryDx=0;entryDy=0;exitX=0.454;exitY=1.014;exitDx=0;exitDy=0;exitPerimeter=0;" edge="1" parent="1" source="JwCXE5OwB9fEEJccJ2Uv-1" target="JwCXE5OwB9fEEJccJ2Uv-4">
          <mxGeometry width="50" height="50" relative="1" as="geometry">
            <mxPoint x="160" y="190" as="sourcePoint" />
            <mxPoint x="210" y="140" as="targetPoint" />
          </mxGeometry>
        </mxCell>
        <mxCell id="JwCXE5OwB9fEEJccJ2Uv-7" value="" style="endArrow=none;html=1;rounded=0;" edge="1" parent="1" source="JwCXE5OwB9fEEJccJ2Uv-1" target="JwCXE5OwB9fEEJccJ2Uv-2">
          <mxGeometry width="50" height="50" relative="1" as="geometry">
            <mxPoint x="250" y="180" as="sourcePoint" />
            <mxPoint x="300" y="130" as="targetPoint" />
          </mxGeometry>
        </mxCell>
        <mxCell id="JwCXE5OwB9fEEJccJ2Uv-8" value="" style="shape=flexArrow;endArrow=classic;startArrow=classic;html=1;rounded=0;" edge="1" parent="1">
          <mxGeometry width="100" height="100" relative="1" as="geometry">
            <mxPoint x="165" y="289.5" as="sourcePoint" />
            <mxPoint x="315" y="289.5" as="targetPoint" />
          </mxGeometry>
        </mxCell>
        <mxCell id="JwCXE5OwB9fEEJccJ2Uv-9" value="if Logged In = Card Area&lt;br&gt;if not = Login Form" style="text;html=1;strokeColor=none;fillColor=none;align=center;verticalAlign=middle;whiteSpace=wrap;rounded=0;" vertex="1" parent="1">
          <mxGeometry x="155" y="220" width="170" height="60" as="geometry" />
        </mxCell>
        <mxCell id="JwCXE5OwB9fEEJccJ2Uv-13" value="" style="endArrow=none;html=1;rounded=0;" edge="1" parent="1">
          <mxGeometry width="50" height="50" relative="1" as="geometry">
            <mxPoint x="510" y="165" as="sourcePoint" />
            <mxPoint x="560" y="115" as="targetPoint" />
          </mxGeometry>
        </mxCell>
        <mxCell id="JwCXE5OwB9fEEJccJ2Uv-14" value="input&amp;nbsp; (email)" style="rounded=1;whiteSpace=wrap;html=1;" vertex="1" parent="1">
          <mxGeometry x="10" y="395" width="100" height="35" as="geometry" />
        </mxCell>
        <mxCell id="JwCXE5OwB9fEEJccJ2Uv-15" value="input (name)" style="rounded=1;whiteSpace=wrap;html=1;" vertex="1" parent="1">
          <mxGeometry x="155" y="395" width="90" height="35" as="geometry" />
        </mxCell>
        <mxCell id="JwCXE5OwB9fEEJccJ2Uv-16" value="Button (form handler/submit form)" style="rounded=1;whiteSpace=wrap;html=1;" vertex="1" parent="1">
          <mxGeometry x="90" y="460" width="120" height="60" as="geometry" />
        </mxCell>
        <mxCell id="JwCXE5OwB9fEEJccJ2Uv-17" value="Button (click handler)" style="rounded=1;whiteSpace=wrap;html=1;arcSize=0;" vertex="1" parent="1">
          <mxGeometry x="460" y="160" width="100" height="40" as="geometry" />
        </mxCell>
      </root>
    </mxGraphModel>
  </diagram>
</mxfile>
